{
    "asset" : {
        "generator" : "Khronos glTF Blender I/O v1.8.19",
        "version" : "2.0"
    },
    "scene" : 0,
    "scenes" : [
        {
            "name" : "Scene",
            "nodes" : [
                0,
                1,
                2,
                3
            ]
        }
    ],
    "nodes" : [
        {
            "mesh" : 0,
            "name" : "Body.001",
            "translation" : [
                -0.3448190689086914,
                -0.9807075262069702,
                -2.3381946086883545
            ]
        },
        {
            "mesh" : 1,
            "name" : "Tail.002",
            "translation" : [
                0.17733687162399292,
                -1.2382793426513672,
                -1.8079302310943604
            ]
        },
        {
            "mesh" : 2,
            "name" : "Tail.001",
            "rotation" : [
                0.05217673256993294,
                0.0032682346645742655,
                -0.3004215955734253,
                0.9523727297782898
            ],
            "translation" : [
                -1.7948240041732788,
                -2.3763632774353027,
                -1.7729806900024414
            ]
        },
        {
            "mesh" : 3,
            "name" : "Tail.003",
            "rotation" : [
                0.16648398339748383,
                -0.14035360515117645,
                0.3728344738483429,
                0.9019858241081238
            ],
            "translation" : [
                0.3642953634262085,
                0.6602430939674377,
                -1.569277048110962
            ]
        }
    ],
    "materials" : [
        {
            "doubleSided" : true,
            "name" : "body.001",
            "pbrMetallicRoughness" : {
                "baseColorFactor" : [
                    0.6236304640769958,
                    0.4588274359703064,
                    0.8000000715255737,
                    1
                ],
                "metallicFactor" : 0,
                "roughnessFactor" : 0.4000000059604645
            }
        },
        {
            "doubleSided" : true,
            "name" : "Tail2.001",
            "pbrMetallicRoughness" : {
                "baseColorFactor" : [
                    0.2926422655582428,
                    0.7016452550888062,
                    0.8000000715255737,
                    1
                ],
                "metallicFactor" : 0,
                "roughnessFactor" : 0.4000000059604645
            }
        },
        {
            "doubleSided" : true,
            "name" : "Tail.001",
            "pbrMetallicRoughness" : {
                "baseColorFactor" : [
                    0.24749398231506348,
                    0.5521103739738464,
                    0.8000000715255737,
                    1
                ],
                "metallicFactor" : 0,
                "roughnessFactor" : 0.4000000059604645
            }
        },
        {
            "doubleSided" : true,
            "name" : "Tail3.001",
            "pbrMetallicRoughness" : {
                "baseColorFactor" : [
                    0.8000000715255737,
                    0.7351158261299133,
                    0.47812291979789734,
                    1
                ],
                "metallicFactor" : 0,
                "roughnessFactor" : 0.4000000059604645
            }
        }
    ],
    "meshes" : [
        {
            "name" : "Sphere.001",
            "primitives" : [
                {
                    "attributes" : {
                        "POSITION" : 0,
                        "NORMAL" : 1,
                        "TEXCOORD_0" : 2
                    },
                    "indices" : 3,
                    "material" : 0
                }
            ]
        },
        {
            "name" : "Sphere.002",
            "primitives" : [
                {
                    "attributes" : {
                        "POSITION" : 4,
                        "NORMAL" : 5,
                        "TEXCOORD_0" : 6
                    },
                    "indices" : 7,
                    "material" : 1
                }
            ]
        },
        {
            "name" : "Sphere.003",
            "primitives" : [
                {
                    "attributes" : {
                        "POSITION" : 8,
                        "NORMAL" : 9,
                        "TEXCOORD_0" : 10
                    },
                    "indices" : 11,
                    "material" : 2
                }
            ]
        },
        {
            "name" : "Sphere.004",
            "primitives" : [
                {
                    "attributes" : {
                        "POSITION" : 12,
                        "NORMAL" : 13,
                        "TEXCOORD_0" : 14
                    },
                    "indices" : 15,
                    "material" : 3
                }
            ]
        }
    ],
    "accessors" : [
        {
            "bufferView" : 0,
            "componentType" : 5126,
            "count" : 7940,
            "max" : [
                -0.7391523718833923,
                2.616615056991577,
                0.6310223937034607
            ],
            "min" : [
                -3.363773822784424,
                0.35488954186439514,
                -1.6276798248291016
            ],
            "type" : "VEC3"
        },
        {
            "bufferView" : 1,
            "componentType" : 5126,
            "count" : 7940,
            "type" : "VEC3"
        },
        {
            "bufferView" : 2,
            "componentType" : 5126,
            "count" : 7940,
            "type" : "VEC2"
        },
        {
            "bufferView" : 3,
            "componentType" : 5123,
            "count" : 11526,
            "type" : "SCALAR"
        },
        {
            "bufferView" : 4,
            "componentType" : 5126,
            "count" : 1942,
            "max" : [
                -2.0634765625,
                2.703352928161621,
                -1.1617069244384766
            ],
            "min" : [
                -5.661961555480957,
                1.5133509635925293,
                -5.6042585372924805
            ],
            "type" : "VEC3"
        },
        {
            "bufferView" : 5,
            "componentType" : 5126,
            "count" : 1942,
            "type" : "VEC3"
        },
        {
            "bufferView" : 6,
            "componentType" : 5126,
            "count" : 1942,
            "type" : "VEC2"
        },
        {
            "bufferView" : 7,
            "componentType" : 5123,
            "count" : 2328,
            "type" : "SCALAR"
        },
        {
            "bufferView" : 8,
            "componentType" : 5126,
            "count" : 1942,
            "max" : [
                -2.0634765625,
                2.703352928161621,
                -1.1617069244384766
            ],
            "min" : [
                -5.661961555480957,
                1.5133509635925293,
                -5.6042585372924805
            ],
            "type" : "VEC3"
        },
        {
            "bufferView" : 9,
            "componentType" : 5126,
            "count" : 1942,
            "type" : "VEC3"
        },
        {
            "bufferView" : 10,
            "componentType" : 5126,
            "count" : 1942,
            "type" : "VEC2"
        },
        {
            "bufferView" : 11,
            "componentType" : 5123,
            "count" : 2328,
            "type" : "SCALAR"
        },
        {
            "bufferView" : 12,
            "componentType" : 5126,
            "count" : 1942,
            "max" : [
                -2.0634520053863525,
                2.7016851902008057,
                -1.1617482900619507
            ],
            "min" : [
                -5.66196870803833,
                1.2827179431915283,
                -5.604257106781006
            ],
            "type" : "VEC3"
        },
        {
            "bufferView" : 13,
            "componentType" : 5126,
            "count" : 1942,
            "type" : "VEC3"
        },
        {
            "bufferView" : 14,
            "componentType" : 5126,
            "count" : 1942,
            "type" : "VEC2"
        },
        {
            "bufferView" : 15,
            "componentType" : 5123,
            "count" : 2328,
            "type" : "SCALAR"
        }
    ],
    "bufferViews" : [
        {
            "buffer" : 0,
            "byteLength" : 95280,
            "byteOffset" : 0
        },
        {
            "buffer" : 0,
            "byteLength" : 95280,
            "byteOffset" : 95280
        },
        {
            "buffer" : 0,
            "byteLength" : 63520,
            "byteOffset" : 190560
        },
        {
            "buffer" : 0,
            "byteLength" : 23052,
            "byteOffset" : 254080
        },
        {
            "buffer" : 0,
            "byteLength" : 23304,
            "byteOffset" : 277132
        },
        {
            "buffer" : 0,
            "byteLength" : 23304,
            "byteOffset" : 300436
        },
        {
            "buffer" : 0,
            "byteLength" : 15536,
            "byteOffset" : 323740
        },
        {
            "buffer" : 0,
            "byteLength" : 4656,
            "byteOffset" : 339276
        },
        {
            "buffer" : 0,
            "byteLength" : 23304,
            "byteOffset" : 343932
        },
        {
            "buffer" : 0,
            "byteLength" : 23304,
            "byteOffset" : 367236
        },
        {
            "buffer" : 0,
            "byteLength" : 15536,
            "byteOffset" : 390540
        },
        {
            "buffer" : 0,
            "byteLength" : 4656,
            "byteOffset" : 406076
        },
        {
            "buffer" : 0,
            "byteLength" : 23304,
            "byteOffset" : 410732
        },
        {
            "buffer" : 0,
            "byteLength" : 23304,
            "byteOffset" : 434036
        },
        {
            "buffer" : 0,
            "byteLength" : 15536,
            "byteOffset" : 457340
        },
        {
            "buffer" : 0,
            "byteLength" : 4656,
            "byteOffset" : 472876
        }
    ],
    "buffers" : [
        {
            "byteLength" : 477532,
            "uri" : "data:application/octet-stream;base64,"
        }
    ]
}
