{
    "asset" : {
        "generator" : "Khronos glTF Blender I/O v1.8.19",
        "version" : "2.0"
    },
    "scene" : 0,
    "scenes" : [
        {
            "name" : "Scene",
            "nodes" : [
                0,
                1,
                2
            ]
        }
    ],
    "nodes" : [
        {
            "mesh" : 0,
            "name" : "Cube",
            "translation" : [
                -3.1832356452941895,
                -0.43840330839157104,
                1.5624990463256836
            ]
        },
        {
            "name" : "Circle",
            "translation" : [
                -3.347320079803467,
                0.3053862452507019,
                2.1112284660339355
            ]
        },
        {
            "mesh" : 1,
            "name" : "Sphere.001",
            "translation" : [
                -3.3890252113342285,
                0.97799152135849,
                1.3431200981140137
            ]
        }
    ],
    "materials" : [
        {
            "doubleSided" : true,
            "name" : "Material.003",
            "pbrMetallicRoughness" : {
                "baseColorFactor" : [
                    0.8000000715255737,
                    0.26818519830703735,
                    0.0895499512553215,
                    1
                ],
                "metallicFactor" : 0,
                "roughnessFactor" : 0.4000000059604645
            }
        },
        {
            "doubleSided" : true,
            "name" : "arbol",
            "pbrMetallicRoughness" : {
                "baseColorFactor" : [
                    0.32924410700798035,
                    0.8000000715255737,
                    0.10538427531719208,
                    1
                ],
                "metallicFactor" : 0,
                "roughnessFactor" : 0.5
            }
        }
    ],
    "meshes" : [
        {
            "name" : "Cube.001",
            "primitives" : [
                {
                    "attributes" : {
                        "POSITION" : 0,
                        "NORMAL" : 1,
                        "TEXCOORD_0" : 2
                    },
                    "indices" : 3,
                    "material" : 0
                }
            ]
        },
        {
            "name" : "Sphere.003",
            "primitives" : [
                {
                    "attributes" : {
                        "POSITION" : 4,
                        "NORMAL" : 5,
                        "TEXCOORD_0" : 6
                    },
                    "indices" : 7,
                    "material" : 1
                }
            ]
        }
    ],
    "accessors" : [
        {
            "bufferView" : 0,
            "componentType" : 5126,
            "count" : 24,
            "max" : [
                0.9364945888519287,
                0.6422973871231079,
                1.0778229236602783
            ],
            "min" : [
                -0.999535858631134,
                -1.4012168645858765,
                -0.9992140531539917
            ],
            "type" : "VEC3"
        },
        {
            "bufferView" : 1,
            "componentType" : 5126,
            "count" : 24,
            "type" : "VEC3"
        },
        {
            "bufferView" : 2,
            "componentType" : 5126,
            "count" : 24,
            "type" : "VEC2"
        },
        {
            "bufferView" : 3,
            "componentType" : 5123,
            "count" : 36,
            "type" : "SCALAR"
        },
        {
            "bufferView" : 4,
            "componentType" : 5126,
            "count" : 31924,
            "max" : [
                1.0222680568695068,
                1.0343579053878784,
                1.226152777671814
            ],
            "min" : [
                -1.1182968616485596,
                -1.0857478380203247,
                -1.1211665868759155
            ],
            "type" : "VEC3"
        },
        {
            "bufferView" : 5,
            "componentType" : 5126,
            "count" : 31924,
            "type" : "VEC3"
        },
        {
            "bufferView" : 6,
            "componentType" : 5126,
            "count" : 31924,
            "type" : "VEC2"
        },
        {
            "bufferView" : 7,
            "componentType" : 5123,
            "count" : 46080,
            "type" : "SCALAR"
        }
    ],
    "bufferViews" : [
        {
            "buffer" : 0,
            "byteLength" : 288,
            "byteOffset" : 0
        },
        {
            "buffer" : 0,
            "byteLength" : 288,
            "byteOffset" : 288
        },
        {
            "buffer" : 0,
            "byteLength" : 192,
            "byteOffset" : 576
        },
        {
            "buffer" : 0,
            "byteLength" : 72,
            "byteOffset" : 768
        },
        {
            "buffer" : 0,
            "byteLength" : 383088,
            "byteOffset" : 840
        },
        {
            "buffer" : 0,
            "byteLength" : 383088,
            "byteOffset" : 383928
        },
        {
            "buffer" : 0,
            "byteLength" : 255392,
            "byteOffset" : 767016
        },
        {
            "buffer" : 0,
            "byteLength" : 92160,
            "byteOffset" : 1022408
        }
    ],
    "buffers" : [
        {
            "byteLength" : 1114568,
            "uri" : "data:application/octet-stream;base64,"
        }
    ]
}
