{
    "asset" : {
        "generator" : "Khronos glTF Blender I/O v1.8.19",
        "version" : "2.0"
    },
    "scene" : 0,
    "scenes" : [
        {
            "name" : "Scene",
            "nodes" : [
                0,
                1
            ]
        }
    ],
    "nodes" : [
        {
            "mesh" : 0,
            "name" : "Sphere",
            "translation" : [
                -4.706777095794678,
                -1.6484812498092651,
                3.0748164653778076
            ]
        },
        {
            "mesh" : 1,
            "name" : "Ring",
            "translation" : [
                -2.127838611602783,
                0.8609105348587036,
                0.5291910171508789
            ]
        }
    ],
    "materials" : [
        {
            "doubleSided" : true,
            "name" : "coloresfera.001",
            "pbrMetallicRoughness" : {
                "baseColorFactor" : [
                    0.8000000715255737,
                    0.3102065622806549,
                    0.03499065339565277,
                    1
                ],
                "metallicFactor" : 0,
                "roughnessFactor" : 0.4000000059604645
            }
        },
        {
            "doubleSided" : true,
            "name" : "coloranillo.001",
            "pbrMetallicRoughness" : {
                "baseColorFactor" : [
                    0.8000000715255737,
                    0.06767207384109497,
                    0.0943259596824646,
                    1
                ],
                "metallicFactor" : 0,
                "roughnessFactor" : 0.4000000059604645
            }
        }
    ],
    "meshes" : [
        {
            "name" : "Sphere",
            "primitives" : [
                {
                    "attributes" : {
                        "POSITION" : 0,
                        "NORMAL" : 1,
                        "TEXCOORD_0" : 2
                    },
                    "indices" : 3,
                    "material" : 0
                }
            ]
        },
        {
            "name" : "Ring",
            "primitives" : [
                {
                    "attributes" : {
                        "POSITION" : 4,
                        "NORMAL" : 5,
                        "TEXCOORD_0" : 6
                    },
                    "indices" : 7,
                    "material" : 1
                }
            ]
        }
    ],
    "accessors" : [
        {
            "bufferView" : 0,
            "componentType" : 5126,
            "count" : 7936,
            "max" : [
                -1.3542606830596924,
                5.288671016693115,
                0.31752824783325195
            ],
            "min" : [
                -3.3431079387664795,
                3.27126145362854,
                -1.6713191270828247
            ],
            "type" : "VEC3"
        },
        {
            "bufferView" : 1,
            "componentType" : 5126,
            "count" : 7936,
            "type" : "VEC3"
        },
        {
            "bufferView" : 2,
            "componentType" : 5126,
            "count" : 7936,
            "type" : "VEC2"
        },
        {
            "bufferView" : 3,
            "componentType" : 5123,
            "count" : 11520,
            "type" : "SCALAR"
        },
        {
            "bufferView" : 4,
            "componentType" : 5126,
            "count" : 9216,
            "max" : [
                -2.809271812438965,
                2.24845290184021,
                4.191997051239014
            ],
            "min" : [
                -7.16030740737915,
                1.372072458267212,
                -0.3445909917354584
            ],
            "type" : "VEC3"
        },
        {
            "bufferView" : 5,
            "componentType" : 5126,
            "count" : 9216,
            "type" : "VEC3"
        },
        {
            "bufferView" : 6,
            "componentType" : 5126,
            "count" : 9216,
            "type" : "VEC2"
        },
        {
            "bufferView" : 7,
            "componentType" : 5123,
            "count" : 13824,
            "type" : "SCALAR"
        }
    ],
    "bufferViews" : [
        {
            "buffer" : 0,
            "byteLength" : 95232,
            "byteOffset" : 0
        },
        {
            "buffer" : 0,
            "byteLength" : 95232,
            "byteOffset" : 95232
        },
        {
            "buffer" : 0,
            "byteLength" : 63488,
            "byteOffset" : 190464
        },
        {
            "buffer" : 0,
            "byteLength" : 23040,
            "byteOffset" : 253952
        },
        {
            "buffer" : 0,
            "byteLength" : 110592,
            "byteOffset" : 276992
        },
        {
            "buffer" : 0,
            "byteLength" : 110592,
            "byteOffset" : 387584
        },
        {
            "buffer" : 0,
            "byteLength" : 73728,
            "byteOffset" : 498176
        },
        {
            "buffer" : 0,
            "byteLength" : 27648,
            "byteOffset" : 571904
        }
    ],
    "buffers" : [
        {
            "byteLength" : 599552,
            "uri" : "data:application/octet-stream;base64,"
        }
    ]
}
